<svg width="816" height="614" viewBox="0 0 816 614" fill="none" xmlns="http://www.w3.org/2000/svg">
<path d="M114.399 102C142.566 102 165.399 79.1665 165.399 51C165.399 22.8335 142.566 0 114.399 0C86.2329 0 63.3994 22.8335 63.3994 51C63.3994 79.1665 86.2329 102 114.399 102Z" fill="#FF6584"/>
<path d="M382 135C410.167 135 433 112.167 433 84C433 55.8335 410.167 33 382 33C353.833 33 331 55.8335 331 84C331 112.167 353.833 135 382 135Z" fill="#FBFF44"/>
<path d="M632.423 494.919C614.644 494.917 597.441 488.61 583.874 477.12C570.307 465.63 561.254 449.7 558.325 432.164L558.265 431.793L558.504 431.506C562.491 426.725 565.841 421.447 568.471 415.804C565.564 418.975 562.272 421.769 558.67 424.12L557.468 424.92L557.398 423.478C557.338 422.234 557.308 420.998 557.308 419.804C557.302 412.791 558.27 405.81 560.184 399.062C568.904 368.411 570.396 335.496 564.616 301.232C563.629 295.357 563.133 289.41 563.133 283.452C563.142 258.276 572.112 233.925 588.438 214.759C604.764 195.594 627.379 182.866 652.234 178.854C677.089 174.842 702.56 179.809 724.086 192.865C745.613 205.92 761.789 226.213 769.719 250.108L769.96 250.836L769.249 251.124C763.909 253.384 758.246 254.789 752.468 255.287C758.574 256.692 764.837 257.294 771.099 257.077L771.76 257.054L771.921 257.697C774.021 266.121 775.081 274.77 775.08 283.452L775.076 284.392C775.057 291.041 776.438 297.619 779.131 303.698C781.824 309.777 785.768 315.22 790.706 319.673C798.73 326.973 805.078 335.926 809.312 345.914C813.545 355.902 815.565 366.689 815.232 377.533C814.899 388.376 812.221 399.018 807.382 408.728C802.543 418.438 795.658 426.984 787.201 433.778L786.81 434.095L786.351 433.886C776.678 429.497 769.631 424.716 764.478 419.009C767.913 426.332 772.539 433.036 778.166 438.847L778.894 439.597L777.99 440.124C766.505 446.821 753.448 450.347 740.153 450.342L739.774 450.341C739.641 450.34 739.506 450.34 739.372 450.34C719.035 450.34 699.76 458.204 686.429 471.952C679.409 479.183 671.017 484.939 661.743 488.883C652.469 492.827 642.5 494.879 632.423 494.919V494.919Z" fill="#CBFCCA"/>
<path d="M605.84 613.272C605.514 613.271 605.199 613.153 604.953 612.939C604.706 612.725 604.546 612.43 604.5 612.107C604.442 611.702 598.801 571.015 603.867 516.939C608.546 466.999 623.573 395.068 668.587 335.992C668.695 335.851 668.83 335.732 668.984 335.642C669.138 335.553 669.308 335.494 669.484 335.47C669.661 335.447 669.84 335.458 670.012 335.503C670.184 335.549 670.346 335.628 670.487 335.736C670.629 335.844 670.748 335.978 670.837 336.132C670.927 336.286 670.985 336.456 671.009 336.632C671.033 336.809 671.022 336.988 670.976 337.16C670.931 337.333 670.852 337.494 670.744 337.636C626.119 396.201 611.213 467.605 606.567 517.192C601.53 570.953 607.127 611.323 607.184 611.725C607.211 611.917 607.197 612.113 607.142 612.299C607.087 612.486 606.992 612.658 606.865 612.805C606.737 612.951 606.58 613.069 606.403 613.149C606.226 613.23 606.034 613.272 605.84 613.272V613.272Z" fill="#3F3D56"/>
<path d="M628.343 414.107C628.056 414.107 627.777 414.017 627.545 413.849C627.314 413.68 627.141 413.443 627.052 413.171C626.964 412.898 626.964 412.605 627.052 412.333C627.14 412.06 627.313 411.823 627.545 411.655C640.371 402.973 654.227 395.919 668.794 390.656C691.552 382.325 726.159 374.771 761.786 386.11C761.956 386.164 762.113 386.251 762.249 386.366C762.386 386.48 762.498 386.621 762.58 386.779C762.661 386.937 762.711 387.11 762.726 387.287C762.741 387.465 762.721 387.643 762.667 387.813C762.613 387.983 762.526 388.14 762.412 388.276C762.297 388.412 762.156 388.524 761.998 388.606C761.84 388.688 761.667 388.738 761.49 388.753C761.312 388.768 761.134 388.747 760.964 388.693C726.067 377.588 692.087 385.016 669.726 393.203C655.393 398.375 641.76 405.31 629.138 413.848C628.907 414.016 628.629 414.107 628.343 414.107V414.107Z" fill="#3F3D56"/>
<path d="M151.098 512.591C138.451 512.568 118.54 513.589 107.694 519.315C99.3601 523.717 91.77 529.402 85.2025 536.163C82.6711 538.779 80.2735 541.521 78.0189 544.379C71.7817 523.042 71.0557 500.471 75.9089 478.776C76.2501 477.316 76.1379 475.786 75.5874 474.391C75.0368 472.996 74.074 471.802 72.8273 470.968C71.5807 470.135 70.1095 469.701 68.6099 469.725C67.1104 469.749 65.6538 470.229 64.4344 471.102C46.8151 483.951 35.5506 505.727 32.8111 527.755C29.3206 555.822 37.5396 584.106 48.9628 609.989L48.9592 610.002C48.938 610.119 48.9061 610.246 48.8746 610.372C48.8323 610.563 48.7796 610.753 48.7373 610.943C48.663 611.271 48.5789 611.609 48.5045 611.937L50.3542 611.852C50.46 611.905 50.5658 611.947 50.6711 612H96.9978C97.6117 611.331 98.1836 610.625 98.7102 609.886C103.837 602.857 105.961 593.334 108.551 584.741C110.426 578.519 112.772 572.449 115.569 566.582C122.61 551.847 132.326 538.547 144.223 527.359C144.603 526.999 144.995 526.64 145.386 526.291C147.378 524.459 150.467 522.008 153.485 519.707C154.145 519.206 154.63 518.51 154.874 517.719C155.118 516.927 155.107 516.079 154.844 515.293C154.58 514.508 154.077 513.825 153.405 513.34C152.734 512.855 151.927 512.594 151.098 512.591V512.591Z" fill="#CBFCCA"/>
<path d="M390.348 75.7845C391.438 78.8315 391.286 82.1848 389.927 85.1212C388.567 88.0577 386.107 90.342 383.079 91.4818C382.409 91.732 381.718 91.9225 381.014 92.0509L374.013 134.919L357.59 119.755L366.756 81.3716C366.417 78.1372 367.364 74.8992 369.393 72.3577C371.422 69.8161 374.37 68.1752 377.599 67.7896C380.316 67.4782 383.058 68.1 385.375 69.5528C387.691 71.0056 389.445 73.2032 390.348 75.7844L390.348 75.7845Z" fill="#9E616A"/>
<path d="M269.146 172.919C269.146 172.919 281.892 156.077 328.146 156.539L354.399 147L360.399 92L381.399 97L378.399 165L333.399 191L274.399 203L269.146 172.919Z" fill="#6C63FF"/>
<path d="M198.072 587.545L210.189 592.708L235.872 548.43L217.989 540.809L198.072 587.545Z" fill="#9E616A"/>
<path d="M298.2 599.011L311.37 599.01L317.636 548.208L298.197 548.209L298.2 599.011Z" fill="#9E616A"/>
<path d="M297.736 612.75L338.238 612.749V612.236C338.237 608.055 336.576 604.046 333.62 601.09C330.664 598.133 326.654 596.472 322.473 596.472H322.472L315.074 590.86L301.271 596.473L297.735 596.473L297.736 612.75Z" fill="#2F2E41"/>
<path d="M190.705 596.34L227.964 612.218L228.165 611.747C229.804 607.901 229.848 603.561 228.287 599.682C226.727 595.804 223.69 592.704 219.844 591.064L219.843 591.064L215.237 583L200.338 582.752L197.086 581.366L190.705 596.34Z" fill="#2F2E41"/>
<path d="M311.119 298.347L331.136 420.231L325.689 438.394L332.837 451.258L322.339 564.228L326.601 573.609L314.695 580.952H290.469L289.183 478.679L283.199 463.663V455.387L271.017 393.024L268.774 464.36L265.23 479.399L268.207 490.108L264.318 497.61L230.986 569.18H203.821L205.922 552.995C201.055 550.53 213.23 543.328 214.399 538L210.399 529L214.399 512L218.067 478.782L214.199 408.663L216.019 314.24L247.797 289.939L311.119 298.347Z" fill="#2F2E41"/>
<path d="M262.373 137.833C277.535 137.833 289.826 125.542 289.826 110.381C289.826 95.2192 277.535 82.9283 262.373 82.9283C247.212 82.9283 234.921 95.2192 234.921 110.381C234.921 125.542 247.212 137.833 262.373 137.833Z" fill="#9E616A"/>
<path d="M214.672 348.905C215.441 347.526 215.899 345.995 216.012 344.419C216.126 342.844 215.893 341.263 215.329 339.788C214.766 338.312 213.886 336.978 212.751 335.88C211.616 334.782 210.255 333.945 208.762 333.43L208.697 295.04L192.061 306.05L194.673 340.819C193.974 343.384 194.24 346.117 195.421 348.499C196.602 350.882 198.615 352.748 201.081 353.745C203.546 354.742 206.291 354.799 208.796 353.907C211.301 353.015 213.391 351.236 214.672 348.905Z" fill="#9E616A"/>
<path d="M213.134 179.04L205.702 171.876L200.242 175.817C200.242 175.817 194.871 182.263 190.573 201.6C186.276 220.938 190.573 327.295 190.573 327.295L214.208 324.072L210.986 268.208L220.654 220.938L213.134 179.04Z" fill="#6C63FF"/>
<path d="M202.16 173.624L227.199 161.663L244.199 145.895L275.199 145.663L285.199 158.663L311.599 167.631L307.199 258.663L310.199 265.663C310.199 265.663 308.109 267.551 307.154 268.607C306.199 269.663 308.474 278.504 308.474 278.504L309.756 288.122L306.199 290.663L310.823 296.125L311.971 304.735C311.971 304.735 231.256 284.673 216.005 317.907C215.199 319.663 217.183 302.502 217.183 302.502L219.168 289.939L217.199 278.663L214.199 275.663L219.231 270.632L216.005 246.758L202.16 173.624Z" fill="#6C63FF"/>
<path d="M463.516 587.005H448.657L441.586 529.692H463.516V587.005Z" fill="#FFB6B6"/>
<path d="M471.359 612.75H460.703L458.801 602.69L453.93 612.75H425.668C424.313 612.75 422.994 612.317 421.902 611.514C420.811 610.712 420.005 609.581 419.602 608.288C419.199 606.994 419.22 605.606 419.661 604.325C420.103 603.045 420.943 601.939 422.058 601.169L444.627 585.582V575.411L468.366 576.828L471.359 612.75Z" fill="#2F2E41"/>
<path d="M608.025 557.524L595.244 565.103L559.927 519.414L578.79 508.228L608.025 557.524Z" fill="#FFB6B6"/>
<path d="M627.902 575.667L618.737 581.103L611.97 573.42L612.911 584.558L588.603 598.974C587.437 599.665 586.082 599.965 584.734 599.832C583.386 599.698 582.116 599.136 581.109 598.23C580.103 597.323 579.412 596.118 579.139 594.791C578.866 593.464 579.024 592.085 579.59 590.854L591.052 565.935L585.864 557.187L607.005 546.297L627.902 575.667Z" fill="#2F2E41"/>
<path d="M456.884 220.55L449.664 266.582L518.261 267.484L509.235 223.258L456.884 220.55Z" fill="#FFB6B6"/>
<path d="M449.399 266L429.807 313.517L428.379 440.588L445.099 561.914H463.602L471.183 442.566L489.829 360.903L508.219 446.314L565.399 529.914H593.497L541.84 437.789L535.861 337.435C535.861 337.435 539.587 294.863 520.517 269.741L515.875 256.33L449.399 266Z" fill="#2F2E41"/>
<path d="M545.369 300.692C543.459 300.172 541.687 299.239 540.176 297.959C538.666 296.679 537.454 295.084 536.627 293.285C535.8 291.487 535.377 289.529 535.389 287.549C535.4 285.57 535.845 283.617 536.693 281.828L507.511 186.687L528.976 182.432L555.666 275.69C558.576 277.314 560.79 279.949 561.888 283.095C562.986 286.242 562.892 289.683 561.622 292.764C560.353 295.846 557.998 298.356 555.002 299.817C552.007 301.278 548.579 301.589 545.369 300.692V300.692Z" fill="#FFB6B6"/>
<path d="M510.75 253.972L459.464 230.059C458.113 230.03 456.808 229.559 455.75 228.718C454.691 227.877 453.938 226.712 453.605 225.402C451.07 215.366 445.493 204.209 448.451 178.158C449.035 173.111 450.625 168.233 453.127 163.811C455.629 159.39 458.993 155.515 463.019 152.417C467.045 149.318 471.652 147.058 476.567 145.771C481.481 144.484 486.604 144.196 491.632 144.924C496.936 145.683 502.02 147.555 506.549 150.418C511.079 153.28 514.952 157.067 517.915 161.532C520.878 165.996 522.863 171.037 523.741 176.323C524.618 181.608 524.369 187.02 523.008 192.202C517.056 214.806 517.694 238.977 517.015 248.267C516.915 249.61 516.377 250.883 515.485 251.893C514.593 252.902 513.395 253.591 512.074 253.855C511.681 253.933 511.282 253.973 510.881 253.973C510.837 253.973 510.794 253.972 510.75 253.972Z" fill="#6C63FF"/>
<path d="M400.327 94.1835C400.042 94.8202 399.707 95.4334 399.326 96.0175L423.849 153.518L438.923 155.368L439.105 178.481L412.103 177.801C409.921 177.746 407.817 176.985 406.104 175.632C404.392 174.279 403.165 172.407 402.608 170.297L384.431 101.54C381.856 100.772 379.576 99.2382 377.895 97.1427C376.213 95.0473 375.209 92.4894 375.016 89.8094C374.823 87.1294 375.451 84.4542 376.816 82.1397C378.181 79.8252 380.218 77.981 382.656 76.8525C385.095 75.724 387.819 75.3647 390.467 75.8222C393.114 76.2798 395.56 77.5326 397.478 79.414C399.397 81.2954 400.697 83.7163 401.205 86.3546C401.714 88.9929 401.408 91.7236 400.327 94.1836V94.1835Z" fill="#FFB6B6"/>
<path d="M426.32 151.469C426.93 150.929 427.649 150.526 428.429 150.289C429.209 150.052 430.031 149.986 430.839 150.095L459.05 153.914C463.221 153.86 467.242 155.462 470.233 158.368C473.224 161.275 474.941 165.249 475.006 169.419C475.071 173.589 473.481 177.615 470.582 180.614C467.684 183.612 463.714 185.34 459.545 185.416L431.347 189.962C430.543 190.091 429.719 190.046 428.934 189.829C428.148 189.612 427.419 189.228 426.795 188.703C426.171 188.179 425.667 187.526 425.318 186.789C424.97 186.053 424.784 185.249 424.773 184.434L424.408 155.789C424.397 154.973 424.562 154.166 424.892 153.42C425.222 152.675 425.709 152.009 426.32 151.469V151.469Z" fill="#6C63FF"/>
<path d="M506.203 210.787C505.482 210.407 504.851 209.877 504.353 209.231C503.856 208.586 503.503 207.84 503.32 207.046L496.912 179.308C495.387 175.426 495.463 171.099 497.124 167.274C498.785 163.448 501.894 160.438 505.771 158.901C509.648 157.365 513.976 157.429 517.806 159.079C521.635 160.728 524.655 163.829 526.202 167.702L540.429 192.467C540.835 193.174 541.084 193.96 541.158 194.772C541.233 195.584 541.132 196.402 540.862 197.171C540.592 197.94 540.16 198.642 539.594 199.229C539.028 199.816 538.343 200.274 537.584 200.572L510.92 211.047C510.162 211.346 509.347 211.477 508.533 211.432C507.719 211.387 506.925 211.167 506.203 210.787V210.787Z" fill="#6C63FF"/>
<path d="M505.067 135.142C519.122 127.459 524.288 109.836 516.604 95.7803C508.921 81.7249 491.298 76.5593 477.243 84.2427C463.187 91.9261 458.022 109.549 465.705 123.604C473.388 137.66 491.011 142.825 505.067 135.142Z" fill="#FFB6B6"/>
<path d="M471.202 98.0329C464.979 97.9978 458.757 97.9628 452.534 97.9278C452.091 93.6866 453.979 89.4672 456.729 86.2088C459.479 82.9502 463.041 80.4966 466.557 78.0839C470.126 75.6343 473.824 73.1292 478.067 72.2731C481.624 71.5556 485.3 72.0534 488.893 72.5531C493.659 73.2157 498.424 73.8784 503.189 74.541C508.42 75.2683 513.893 76.091 518.141 79.228C523.886 83.4703 522.418 93.2625 527.93 97.8026C544.58 111.515 537.839 123.49 538.149 135.989C518.03 138.099 497.91 140.21 477.79 142.32C475.606 142.696 473.37 142.631 471.212 142.129C469.099 141.483 467.161 139.734 467.006 137.53C466.832 135.068 468.785 133.053 470.37 131.162C474.153 126.475 476.424 120.749 476.882 114.743C477.34 108.737 475.964 102.733 472.936 97.5264L471.202 98.0329Z" fill="#2F2E41"/>
<path d="M255.35 136.489C255.233 136.231 255.116 135.972 254.999 135.712C255.044 135.713 255.089 135.72 255.134 135.721L255.35 136.489Z" fill="#2F2E41"/>
<path d="M234.157 84.1767C235.461 82.9469 237.155 82.2144 238.944 82.1072C240.719 82.1644 242.519 83.7677 242.151 85.5054C245.412 79.7321 250.602 75.2917 256.81 72.9637C263.019 70.6358 269.849 70.5689 276.101 72.775C280.514 74.3316 284.84 77.4458 285.854 82.0133C285.952 83.2125 286.31 84.376 286.902 85.4236C287.415 85.9836 288.081 86.3814 288.817 86.5679C289.553 86.7544 290.328 86.7215 291.045 86.4733L291.089 86.4604C291.335 86.3766 291.6 86.3683 291.85 86.4368C292.1 86.5052 292.325 86.6473 292.493 86.8445C292.662 87.0417 292.768 87.285 292.797 87.543C292.826 87.8009 292.777 88.0616 292.656 88.2914L291.408 90.6197C292.981 90.9705 294.617 90.9357 296.174 90.5183C296.433 90.4505 296.706 90.4644 296.957 90.558C297.207 90.6517 297.422 90.8205 297.573 91.0415C297.724 91.2624 297.803 91.5245 297.799 91.7919C297.794 92.0593 297.708 92.3189 297.55 92.5351C295.475 95.3735 292.767 97.6885 289.64 99.2958C286.513 100.903 283.054 101.758 279.538 101.793C274.55 101.763 269.511 100.044 264.657 101.191C262.779 101.635 261.024 102.493 259.521 103.704C258.018 104.914 256.805 106.446 255.971 108.186C255.137 109.926 254.704 111.831 254.702 113.761C254.701 115.69 255.131 117.596 255.962 119.338C254.471 117.707 251.588 118.093 250.062 119.692C249.36 120.548 248.841 121.539 248.537 122.604C248.233 123.669 248.151 124.785 248.296 125.883C248.703 129.246 249.701 132.511 251.245 135.526C245.346 135.344 239.646 133.357 234.913 129.832C230.18 126.307 226.643 121.414 224.78 115.815C222.916 110.216 222.816 104.179 224.493 98.5212C226.17 92.8633 229.544 87.8563 234.157 84.1766V84.1767Z" fill="#2F2E41"/>
<path d="M685.069 614H14.9259C14.6801 613.999 14.4446 613.84 14.271 613.559C14.0975 613.278 14 612.897 14 612.5C14 612.103 14.0975 611.722 14.271 611.441C14.4446 611.16 14.6801 611.001 14.9259 611H685.069C685.191 610.999 685.312 611.038 685.425 611.113C685.538 611.188 685.641 611.298 685.727 611.438C685.814 611.577 685.882 611.743 685.929 611.925C685.976 612.107 686 612.303 686 612.5C686 612.697 685.976 612.893 685.929 613.075C685.882 613.257 685.814 613.423 685.727 613.562C685.641 613.702 685.538 613.812 685.425 613.887C685.312 613.962 685.191 614.001 685.069 614V614Z" fill="#CCCCCC"/>
<path d="M206.435 11.8704C181.718 8.52945 153.5 21.8891 147.094 45.9939C145.479 41.7081 142.544 38.0464 138.712 35.5379C134.88 33.0295 130.35 31.8041 125.777 32.0388C121.203 32.2735 116.822 33.9561 113.267 36.8437C109.712 39.7312 107.167 43.674 106 48.1026L108.83 50.1293C161.797 61.5836 216.627 61.3357 269.489 49.4029C252.296 31.334 231.152 15.2113 206.435 11.8704Z" fill="#F0F0F0"/>
<path d="M100.435 79.8704C75.718 76.5294 47.4997 89.8891 41.0935 113.994C39.4791 109.708 36.5439 106.046 32.7122 103.538C28.8804 101.029 24.3504 99.8041 19.7766 100.039C15.2027 100.273 10.8219 101.956 7.26704 104.844C3.71216 107.731 1.16726 111.674 0 116.103L2.82971 118.129C55.7972 129.584 110.627 129.336 163.489 117.403C146.296 99.334 125.152 83.2113 100.435 79.8704Z" fill="#F0F0F0"/>
</svg>
